<?xml version="1.0" encoding="UTF-8"?>
<svg id="Layer_1" data-name="Layer 1" xmlns="http://www.w3.org/2000/svg" viewBox="0 0 1920 1080">
  <defs>
    <style>
      .cls-1 {
        fill: #a4c900;
      }

      .cls-1, .cls-2, .cls-3, .cls-4, .cls-5, .cls-6, .cls-7, .cls-8, .cls-9, .cls-10, .cls-11, .cls-12 {
        stroke-miterlimit: 10;
      }

      .cls-1, .cls-2, .cls-3, .cls-4, .cls-6, .cls-10, .cls-11, .cls-12 {
        stroke-width: 5px;
      }

      .cls-1, .cls-2, .cls-3, .cls-5, .cls-6, .cls-8, .cls-10, .cls-11, .cls-12 {
        stroke: #0071bc;
      }

      .cls-2, .cls-10 {
        fill: #ff0;
      }

      .cls-13 {
        fill: #0071bc;
      }

      .cls-13, .cls-14 {
        stroke-width: 0px;
      }

      .cls-15 {
        font-family: OCRAExtended, 'OCR A Extended';
        font-size: 149.32px;
      }

      .cls-15, .cls-7 {
        fill: #000;
      }

      .cls-3 {
        fill: #fbb03b;
      }

      .cls-4 {
        fill: #d7ff00;
        stroke: #510073;
      }

      .cls-5 {
        fill: none;
      }

      .cls-5, .cls-8 {
        stroke-width: 2px;
      }

      .cls-6 {
        fill: #ffb4f9;
      }

      .cls-7 {
        stroke: #f4ff00;
        stroke-width: 10px;
      }

      .cls-8, .cls-12 {
        fill: #5584ff;
      }

      .cls-9 {
        fill: #c2b9ff;
        stroke: #172458;
        stroke-width: 8px;
      }

      .cls-14 {
        fill: #fff;
      }

      .cls-10, .cls-12 {
        opacity: .75;
      }

      .cls-11 {
        fill: #f7931e;
      }
    </style>
  </defs>
  <path class="cls-12" d="M324.07,837.5l185.06-171.25-435.45-11.96c-191.12-5.25-214.56-123.14-28.33-142.48l424.31-44.07-249.93-155.01c-109.7-68.03,88.35-149.48,239.36-98.44l344.06,116.3,123.79-181.33c54.33-79.59,324.74-63.26,326.81,19.73l4.72,189.09,404.3-71.11c177.45-31.21,316.59,70.6,168.17,123.04l-338.17,119.5,380.36,92.66c166.94,40.67,147.59,142.88-114.81,127.73l-428.71-34.12,70,186.66c30.72,81.92-229.25,118.06-314.2,43.68l-193.55-169.48-293.07,140.1c-128.63,61.49-355.91-4.07-274.69-79.23Z"/>
  <ellipse class="cls-10" cx="960" cy="540" rx="354.58" ry="153.67"/>
  <path class="cls-9" d="M654.88,38.5c-292.23,0-529.12,92.34-529.12,206.25s236.9,206.25,529.12,206.25,529.12-92.34,529.12-206.25S947.1,38.5,654.88,38.5ZM654.88,367.75c-174.28,0-315.56-55.07-315.56-123s141.28-123,315.56-123,315.56,55.07,315.56,123-141.28,123-315.56,123Z"/>
  <path class="cls-7" d="M363.54,420.15l-43.31-63c-3.25-4.72-8.37-7.82-14.06-8.51l-153.26-18.58c-4.39-.53-4.45-6.87-.08-7.49l98.94-14.02c14.68-2.08,22.06-18.87,13.66-31.09l-25.49-37.08c-2.12-3.08,1.05-7.04,4.52-5.64l132.73,53.34c3.25,1.31,6.79,1.73,10.25,1.24l141.63-20.08c3.7-.52,5.84,4.08,3.04,6.56l-33.61,29.91c-11.08,9.86-7.93,27.93,5.83,33.46l92.72,37.26c4.1,1.65,2.52,7.79-1.86,7.26l-153.26-18.58c-5.69-.69-11.4,1.1-15.68,4.91l-57.11,50.82c-1.7,1.51-4.34,1.19-5.62-.68Z"/>
  <path class="cls-4" d="M223.5,510.5c0,124.82,178.86,226,399.5,226s399.5-101.18,399.5-226-511.29-416.22-399.5-226c291.5,496-399.5,101.18-399.5,226Z"/>
  <path class="cls-11" d="M1834.72,590.5h-289.44c-14.24,0-25.27,10.15-23.55,21.67l55.42,371.33c1.45,9.7,11.55,17,23.54,17h178.62c11.99,0,22.09-7.3,23.54-17l55.42-371.33c1.72-11.52-9.31-21.67-23.55-21.67ZM1689.5,905.95c-37.56,0-68-49.63-68-110.86s30.44-110.85,68-110.85,68,49.63,68,110.85-30.44,110.86-68,110.86Z"/>
  <path class="cls-1" d="M1757.5,795.09c0,61.23-30.44,110.86-68,110.86s-68-49.63-68-110.86,30.44-110.85,68-110.85,68,49.63,68,110.85Z"/>
  <g>
    <path class="cls-3" d="M1696.25,508.5c-47.36,0-85.75,21.83-85.75,48.75s38.39,48.75,85.75,48.75,85.75-21.83,85.75-48.75-38.39-48.75-85.75-48.75ZM1696.8,589.02c-30.55,0-55.32-14.08-55.32-31.45s24.77-31.45,55.32-31.45,55.32,14.08,55.32,31.45-24.77,31.45-55.32,31.45Z"/>
    <ellipse class="cls-3" cx="1689.5" cy="596.5" rx="176" ry="39"/>
  </g>
  <text class="cls-15" transform="translate(51.9 958.61) scale(.8 1)"><tspan x="0" y="0">TRASH OF THE WEEK</tspan></text>
  <g>
    <path class="cls-6" d="M1556.19,298.66l37.85-60.13-89.06-4.2c-39.09-1.84-43.88-43.23-5.79-50.02l86.78-15.47-51.12-54.42c-22.44-23.89,18.07-52.48,48.95-34.56l70.37,40.83,25.32-63.67c11.11-27.94,66.42-22.21,66.84,6.93l.96,66.39,82.69-24.97c36.29-10.96,64.75,24.79,34.39,43.2l-69.16,41.95,77.79,32.53c34.14,14.28,30.19,50.16-23.48,44.85l-87.68-11.98,14.32,65.53c6.28,28.76-46.89,41.45-64.26,15.33l-39.59-59.5-59.94,49.19c-26.31,21.59-72.79-1.43-56.18-27.82Z"/>
    <ellipse class="cls-2" cx="1688.34" cy="196" rx="72.52" ry="53.95"/>
  </g>
  <g>
    <g>
      <g>
        <path class="cls-14" d="M1670.55,827.83c.59,2.88.98,7.55,2.69,9.92.58-1.25.27-8.64-.53-7.88"/>
        <path class="cls-13" d="M1667.66,828.63c.35,1.74.57,3.49.94,5.23.4,1.85.95,3.84,2.05,5.41.62.89,1.46,1.49,2.59,1.49.96,0,2.18-.55,2.59-1.49.88-2.01.79-4.4.64-6.56-.07-1.06-.13-2.18-.44-3.2-.2-.66-.5-1.28-1-1.77-.59-.58-1.39-.92-2.22-.91-.88,0-1.57.37-2.22.93-1.19,1.03-1.13,3.2,0,4.24,1.27,1.17,2.97,1.1,4.24,0-.59.41-.78.55-.54.43l-.72.3s.03,0,.04-.01l-.8.11h.02c-.27-.04-.53-.07-.8-.11.01,0,.03,0,.04.01l-.72-.3c-.37-.2-.71-.57-.96-.97.03.04.05.09.07.13l-.3-.72c.16.4.22.83.28,1.25l-.11-.8c.25,1.84.33,3.79.09,5.63l.11-.8c-.04.25-.07.51-.17.76l.3-.72-.02.03h5.18c-.31-.44-.55-.91-.77-1.4l.3.72c-1.14-2.7-1.35-5.68-1.92-8.52-.31-1.54-2.22-2.57-3.69-2.1-1.64.53-2.43,2.04-2.1,3.69h0Z"/>
      </g>
      <g>
        <path class="cls-14" d="M1713.56,825.55c-.1,2.11.13,4.23.67,6.27"/>
        <path class="cls-13" d="M1710.56,825.55c-.1,2.37.18,4.78.78,7.07.19.72.74,1.42,1.38,1.79s1.59.54,2.31.3c1.56-.51,2.52-2.06,2.1-3.69-.22-.85-.39-1.71-.51-2.58l.11.8c-.16-1.23-.21-2.46-.16-3.69.03-.75-.36-1.6-.88-2.12s-1.37-.91-2.12-.88c-1.68.08-2.93,1.32-3,3h0Z"/>
      </g>
      <g>
        <path class="cls-14" d="M1689.69,847.61c5.43,2.3,11.2,3.85,17.09,4.6"/>
        <path class="cls-13" d="M1688.89,850.5c5.74,2.41,11.73,3.91,17.89,4.7,1.56.2,3.07-1.52,3-3-.08-1.8-1.33-2.78-3-3-.37-.05-.42-.05-.15-.02-.21-.03-.42-.06-.63-.09-.31-.05-.63-.1-.94-.15-.73-.12-1.46-.26-2.19-.4-1.4-.28-2.79-.61-4.17-.99-2.8-.76-5.54-1.71-8.22-2.84-1.45-.61-3.36.66-3.69,2.1-.4,1.76.54,3.04,2.1,3.69h0Z"/>
      </g>
      <path class="cls-5" d="M1705.56,843.47c-4.1,4.23-8.2,8.46-12.31,12.69"/>
      <g>
        <path class="cls-14" d="M1648.45,802c-3.54-9.87-5.46-20.64-6.21-31.29-.33-15.07-1.25-30.2,4.78-44.11.9-3.26,4.72-6.24,8.8-5.85,4.03.94,9.29,1.14,10.64,4.65.81,2.09,2.44,5.12,3.04,10.33.88,7.75.46,17.97,1.24,29.25.87,12.67,3.41,23.25,5.17,35.67,6.53-.49,13-.44,19.64-.64l1.36.06c-2.83-23.32-.62-46.51,1-69.76.37-3.86,1.32-7.67,5.62-9.49,4.83-1.21,10.13-1.26,13.91,2.44,5.95,5.58,5.85,12.81,5.75,20.05-.03,18.94-2.35,37.1-.1,56.82-.21,2.21,1.23,2.86,3.36,2.3l4.12,2.03c5.63,5.22,8.69,12.61,9.29,20.02.59,7.41-.51,11.33-1.17,18.3h0c-3.78,9.46-8.68,20.97-20.14,23.78-24.14,6.06-53.8,8.25-71.28-12.35-4.2-5.41-7.12-11.82-7.08-18.5.52-11.65-1.19-24.63,8.19-33.89l.08.2Z"/>
        <path class="cls-13" d="M1651.34,801.21c-4.07-11.45-5.93-23.46-6.23-35.57-.29-11.83-.46-23.95,3.61-35.24.43-1.2.87-2.44,1.39-3.61-.15.34.56-.87.42-.68.33-.45.85-.94,1.22-1.23,1.74-1.31,3.21-1.22,5.25-.83s4.44.77,5.91,1.63c.47.28.22.13.1.03.18.15.35.31.51.49.35.4-.39-.55.11.19.32.48.09.16.02,0,.23.51.43,1.03.64,1.54.3.72-.16-.38.04.09.1.25.21.5.31.76,1.8,4.52,2.16,9.19,2.35,14,.22,5.76.22,11.54.48,17.3.61,13.98,3.58,27.56,5.55,41.37.17,1.21,1.71,2.29,2.89,2.2,3.99-.29,7.99-.4,11.98-.47,3-.06,6.02-.24,9.02-.1,1.48.07,3.19-1.44,3-3-1.56-13.06-1.59-26.23-.99-39.36.3-6.51.74-13.02,1.21-19.52.24-3.3.48-6.59.71-9.89.14-1.95.38-3.99,1.3-5.55.38-.65.9-1.22,1.56-1.65.98-.63,2.08-.78,3.26-.92,1.99-.25,4.31-.16,6.13.67,4.28,1.95,6.36,7.05,6.86,11.17.65,5.34.26,10.93.1,16.29-.18,6.24-.51,12.47-.73,18.7-.24,6.95-.34,13.9,0,20.85.17,3.4.46,6.81.77,10.19.35,3.79,3.81,5.05,7.14,4.26l-2.31-.3,2.06,1.01,1.33.65c.17.08.33.18.5.25.32.13.09.11-.08-.08,2.47,2.6,4.53,5.34,5.93,8.68,2.86,6.83,2.61,14.21,1.69,21.41-.21,1.67-.24,3.88-.69,5.31s-1.07,2.65-1.55,3.74c-1.24,2.85-2.61,5.65-4.3,8.26-1.49,2.31-3.34,4.57-5.53,6.26-2.4,1.85-5,2.77-8.07,3.51-12.38,2.99-25.7,4.9-38.15,3.07s-25.34-7.94-31.74-19.75c-1.73-3.19-2.96-6.75-3.13-10.39-.16-3.39.09-6.86.16-10.25.13-6.55.55-13.17,3.99-18.83.89-1.45,1.94-2.73,3.14-3.94l-5.01-1.32.08.2c.63,1.49,1.98,2.56,3.69,2.1,1.41-.39,2.73-2.19,2.1-3.69l-.08-.2c-.84-2-3.26-3.08-5.01-1.32-4.66,4.67-7.23,10.72-8.16,17.19s-.79,12.55-.9,18.82c-.13,7.4,3.23,14.6,7.72,20.32,3.72,4.74,8.86,8.63,14.19,11.38,10.66,5.5,22.93,6.89,34.78,6.18,6.15-.37,12.28-1.27,18.32-2.51,2.84-.58,5.75-1.14,8.52-2.02,2.98-.95,5.64-2.49,8.05-4.46,4.37-3.6,7.39-8.67,9.74-13.75.64-1.38,1.23-2.78,1.82-4.18s1.24-2.8,1.41-4.36c.35-3.28.86-6.54,1.13-9.83.58-7.15-.33-14.38-3.42-20.9-1.49-3.14-3.55-6.07-6.01-8.54-1.39-1.4-3.15-2.07-4.9-2.93-.19-.09-.37-.19-.56-.27-.65-.3-1.21-.43-1.92-.36-.25.03-.48.1-.73.13.32-.04.02-.04-.12,0-.42.12-.04-.04.3.16.31.19.37.48.56.74.09.13-.1.41.01.1.04-.11.02-.38.02-.49-.03-.57-.13-1.15-.19-1.72-.41-4.02-.64-8.06-.74-12.09-.19-7.85.12-15.69.45-23.53.32-7.62.65-15.25.59-22.89-.05-6.79-1.33-13.5-6.35-18.45-2.63-2.6-5.87-3.98-9.54-4.29-3.21-.27-7.24.13-9.95,1.99-6.16,4.22-5.55,12.5-6.02,19.1-1.2,16.53-2.37,33.12-1.48,49.7.22,4.06.56,8.11,1.05,12.15l3-3c-3-.14-6.02.05-9.02.1-4,.08-8,.18-11.98.47l2.89,2.2c-1.83-12.79-4.62-25.38-5.27-38.32-.31-6.18-.3-12.37-.54-18.55-.2-5.31-.55-10.67-2.52-15.67-.16-.42-.34-.83-.51-1.24.2.48-.71-1.71-.28-.66-.06-.14-.11-.27-.17-.41-.51-1.25-1.03-2.4-2.04-3.34-1.87-1.74-4.38-2.5-6.83-3-2.74-.56-5.45-1.29-8.24-.6s-5.37,2.55-7,4.97c-.76,1.13-1.15,2.42-1.64,3.64-.61,1.48-1.15,2.99-1.62,4.53-.91,2.95-1.57,5.98-2.03,9.04-.97,6.44-1.18,12.93-1.11,19.43.08,7.41.37,14.72,1.44,22.06,1.04,7.18,2.69,14.26,5.12,21.1.54,1.53,2.05,2.55,3.69,2.1,1.48-.41,2.64-2.16,2.1-3.69Z"/>
      </g>
    </g>
    <g>
      <ellipse class="cls-8" cx="1666.07" cy="832.5" rx="5.07" ry="6.5"/>
      <ellipse class="cls-8" cx="1708.93" cy="832.5" rx="5.07" ry="6.5"/>
    </g>
    <polygon class="cls-8" points="1696.25 857.12 1690.3 851.72 1684.55 857.66 1690.12 851.55 1684.35 845.95 1690.3 851.36 1696.05 845.41 1690.48 851.53 1696.25 857.12"/>
  </g>
</svg>