<?xml version="1.0" encoding="UTF-8"?>
<svg id="Layer_2" data-name="Layer 2" xmlns="http://www.w3.org/2000/svg" viewBox="0 0 396.48 498.59">
  <defs>
    <style>
      .cls-1 {
        stroke: #df001f;
      }

      .cls-1, .cls-2, .cls-3, .cls-4, .cls-5, .cls-6, .cls-7, .cls-8, .cls-9, .cls-10, .cls-11, .cls-12, .cls-13, .cls-14, .cls-15, .cls-16, .cls-17, .cls-18, .cls-19, .cls-20, .cls-21, .cls-22, .cls-23, .cls-24 {
        stroke-miterlimit: 10;
      }

      .cls-1, .cls-2, .cls-3, .cls-4, .cls-6, .cls-7, .cls-8, .cls-9, .cls-10, .cls-11, .cls-12, .cls-13, .cls-15, .cls-16, .cls-18, .cls-19, .cls-21, .cls-22, .cls-23 {
        stroke-width: 5px;
      }

      .cls-1, .cls-2, .cls-3, .cls-5, .cls-6, .cls-8, .cls-9, .cls-10, .cls-11, .cls-12, .cls-13, .cls-15, .cls-16, .cls-18, .cls-19, .cls-20, .cls-21, .cls-22, .cls-24 {
        fill: #000;
      }

      .cls-2 {
        stroke: #ff1fbd;
      }

      .cls-3 {
        stroke: #3098eb;
      }

      .cls-4 {
        fill: #a4c900;
      }

      .cls-4, .cls-7, .cls-14, .cls-17, .cls-23 {
        stroke: #0071bc;
      }

      .cls-25 {
        fill: #0071bc;
      }

      .cls-25, .cls-26 {
        stroke-width: 0px;
      }

      .cls-5 {
        stroke: #89dcc8;
      }

      .cls-5, .cls-20, .cls-24 {
        stroke-width: 3px;
      }

      .cls-6 {
        stroke: #22ff10;
      }

      .cls-7 {
        fill: #fbb03b;
      }

      .cls-8 {
        stroke: #ff98eb;
      }

      .cls-9 {
        stroke: #7c1e94;
      }

      .cls-10 {
        stroke: #ff0;
      }

      .cls-11 {
        stroke: #ff64eb;
      }

      .cls-12 {
        stroke: #f4ff00;
      }

      .cls-13 {
        stroke: #d641ff;
      }

      .cls-14 {
        fill: none;
      }

      .cls-14, .cls-17 {
        stroke-width: 2px;
      }

      .cls-15 {
        stroke: #aeff00;
      }

      .cls-16 {
        stroke: #00b46c;
      }

      .cls-17 {
        fill: #5584ff;
      }

      .cls-18 {
        stroke: #ff6453;
      }

      .cls-26 {
        fill: #fff;
      }

      .cls-19, .cls-20 {
        stroke: #ff85eb;
      }

      .cls-21 {
        stroke: #06d4cb;
      }

      .cls-22 {
        stroke: #2afff0;
      }

      .cls-23 {
        fill: #f7931e;
      }

      .cls-24 {
        stroke: #1fdcff;
      }
    </style>
  </defs>
  <g id="Layer_1-2" data-name="Layer 1">
    <g>
      <g>
        <path class="cls-23" d="M359.75,84.76H37.84c-15.84,0-28.1,10.18-26.19,21.74l61.64,372.53c1.61,9.73,12.85,17.05,26.18,17.05h198.65c13.33,0,24.57-7.32,26.18-17.05l61.64-372.53c1.91-11.56-10.35-21.74-26.19-21.74ZM198.24,401.23c-41.77,0-75.63-49.79-75.63-111.22s33.85-111.21,75.63-111.21,75.63,49.79,75.63,111.21-33.85,111.22-75.63,111.22Z"/>
        <path class="cls-4" d="M273.87,290.02c0,61.43-33.85,111.22-75.63,111.22s-75.63-49.79-75.63-111.22,33.85-111.21,75.63-111.21,75.63,49.79,75.63,111.21Z"/>
        <g>
          <path class="cls-7" d="M205.75,2.5c-52.67,0-95.37,21.9-95.37,48.91s42.7,48.91,95.37,48.91,95.37-21.9,95.37-48.91S258.42,2.5,205.75,2.5ZM206.36,83.28c-33.98,0-61.53-14.13-61.53-31.55s27.55-31.55,61.53-31.55,61.53,14.13,61.53,31.55-27.55,31.55-61.53,31.55Z"/>
          <ellipse class="cls-7" cx="198.24" cy="90.78" rx="195.74" ry="39.13"/>
        </g>
        <g>
          <g>
            <g>
              <path class="cls-26" d="M177.17,322.87c.65,2.89,1.09,7.58,2.99,9.95.64-1.26.3-8.66-.59-7.9"/>
              <path class="cls-25" d="M174.28,323.66c.39,1.76.64,3.56,1.06,5.31.21.9.47,1.79.81,2.65.5,1.25,1.06,2.26,1.88,3.31.57.73,1.67.94,2.52.83s1.79-.6,2.19-1.43c.95-1.96.83-4.45.67-6.58-.08-1.06-.15-2.19-.48-3.21-.22-.68-.51-1.27-1.02-1.77-.6-.58-1.39-.92-2.23-.91-.92,0-1.54.39-2.24.93-.56.44-.88,1.45-.88,2.12,0,.74.33,1.61.88,2.12s1.32.91,2.12.88c.85-.04,1.46-.36,2.12-.88-.59.4-.77.54-.54.43l-.72.3s.03,0,.05-.01l-.8.11h.02c-.27-.04-.53-.07-.8-.11.02,0,.03,0,.04.01l-.72-.3c-.23-.11-.86-.69-.93-.94.02.06.07.13.09.19l-.3-.72c.18.45.25.95.31,1.43l-.11-.8c.23,1.74.3,3.58.07,5.33l.11-.8c-.04.27-.08.54-.18.79l.3-.72s-.02.05-.03.07l4.71-.61c.72.91.01-.04-.14-.31-.17-.31-.32-.62-.45-.95l.3.72c-1.06-2.58-1.32-5.38-1.93-8.08-.34-1.53-2.2-2.58-3.69-2.1-1.61.52-2.46,2.05-2.1,3.69h0Z"/>
            </g>
            <g>
              <path class="cls-26" d="M225,320.57c-.11,2.11.14,4.24.74,6.29"/>
              <path class="cls-25" d="M222,320.57c-.11,2.37.19,4.81.85,7.09.21.73.72,1.41,1.38,1.79s1.59.54,2.31.3,1.43-.68,1.79-1.38.53-1.52.3-2.31c-.27-.93-.47-1.87-.6-2.83l.11.8c-.15-1.15-.2-2.31-.14-3.47.04-.75-.36-1.6-.88-2.12s-1.37-.91-2.12-.88c-1.69.08-2.92,1.32-3,3h0Z"/>
            </g>
            <g>
              <path class="cls-26" d="M198.44,342.71c6.03,2.3,12.46,3.86,19.01,4.61"/>
              <path class="cls-25" d="M197.65,345.6c6.39,2.42,13.03,3.93,19.81,4.72,1.56.18,3.07-1.51,3-3-.08-1.78-1.32-2.8-3-3-2.78-.32-6.09-.93-9.07-1.66s-6.15-1.71-9.14-2.85c-1.47-.56-3.35.62-3.69,2.1-.39,1.71.52,3.09,2.1,3.69h0Z"/>
            </g>
            <path class="cls-14" d="M216.1,338.56c-4.56,4.24-9.12,8.49-13.69,12.73"/>
            <g>
              <path class="cls-26" d="M152.58,296.95c-3.94-9.9-6.07-20.7-6.91-31.39-.37-15.12-1.39-30.3,5.32-44.26,1-3.27,5.25-6.26,9.79-5.87,4.49.94,10.33,1.15,11.84,4.67.9,2.09,2.72,5.14,3.38,10.37.98,7.78.51,18.03,1.38,29.34.97,12.71,3.79,23.32,5.75,35.78,7.26-.5,14.46-.44,21.85-.64l1.51.06c-3.14-23.4-.69-46.66,1.11-69.98.41-3.88,1.47-7.7,6.25-9.52,5.37-1.22,11.27-1.27,15.47,2.44,6.62,5.6,6.51,12.85,6.4,20.11-.04,19-2.61,37.22-.11,57-.23,2.22,1.37,2.87,3.73,2.31l4.58,2.03c6.26,5.24,9.67,12.65,10.33,20.08.66,7.43-.56,11.36-1.3,18.35h0c-4.2,9.49-9.66,21.04-22.4,23.86-26.85,6.08-59.83,8.28-79.27-12.39-4.67-5.43-7.92-11.86-7.87-18.56.58-11.69-1.33-24.71,9.11-34l.09.2Z"/>
              <path class="cls-25" d="M155.47,296.16c-2.34-5.94-4.05-12.11-5.22-18.39s-1.59-12-1.75-18.1c-.31-11.81-.42-24.09,4.3-35.16.29-.69.64-1.35.92-2.04s.13-.46.49-1.06c.48-.8,1.2-1.45,2.16-2.01,2.07-1.2,3.76-1.01,5.99-.63,1.16.2,2.33.39,3.49.64.5.11.99.23,1.48.38.26.08.52.16.78.25.62.22-.09-.08.43.18.26.13.52.27.77.43.09.06.41.36.06.04-.02-.02.58.62.32.3s.22.4.21.38c.38.73.7,1.51,1.04,2.26.7,1.54,1.51,3.91,1.91,6.1.44,2.4.54,4.88.65,7.32.27,5.81.26,11.64.53,17.45.33,7.14,1.18,14.2,2.42,21.24s2.67,13.75,3.77,20.67c.19,1.21,1.69,2.28,2.89,2.2,4.43-.29,8.86-.4,13.3-.47,3.35-.06,6.71-.25,10.06-.1,1.47.06,3.21-1.43,3-3-1.76-13.24-1.77-26.62-1.08-39.94.35-6.74.87-13.46,1.41-20.19.26-3.28.46-6.58.78-9.85.08-.77.02-.33.16-1.08.09-.46.19-.92.31-1.37.26-.94.44-1.53,1.19-2.49-.26.33.18-.18.24-.24.2-.19.38-.39.6-.56-.23.18.23-.16.22-.15.3-.2.62-.41.95-.55.94-.43,2.09-.55,3.08-.67,2.53-.29,5.03-.25,7.38.68,4.41,1.74,6.89,6.42,7.65,10.82.34,1.97.37,4.55.35,6.81-.02,3.06-.06,6.12-.15,9.17-.19,6.34-.56,12.67-.81,19-.28,7.12-.41,14.26-.01,21.38.1,1.87.25,3.73.43,5.6.09.9.18,1.8.29,2.7s.04,1.81.24,2.68c.8,3.51,4.37,4.17,7.41,3.51l-2.31-.3c1.4.62,2.78,1.29,4.2,1.86.11.04.22.1.33.15-.17-.07-.32-.27.07.1.65.61,1.29,1.2,1.9,1.85,1.1,1.18,2.07,2.45,2.93,3.82,3.54,5.69,4.53,12.11,4.09,18.69-.26,3.85-.97,7.46-1.39,11.41l.41-1.51c-2.01,4.54-4.12,9.08-7.02,13.13-2.6,3.63-6.44,7.02-10.77,8.55-2.59.91-5.36,1.38-8.05,1.92-2.86.57-5.73,1.08-8.61,1.51-5.26.79-10.95,1.33-16.47,1.45-10.78.25-21.9-.97-31.58-5.42-4.86-2.23-9.18-5.09-12.94-8.73-4.2-4.07-7.68-9.71-8.39-15.58-.38-3.08,0-6.36.05-9.46s.12-6.19.48-9.26c.27-2.27,1.04-5.65,1.98-7.85,1.29-3.02,3.19-5.52,5.61-7.71l-4.71-.61.09.2c.68,1.47,2.8,1.84,4.1,1.08,1.51-.88,1.76-2.63,1.08-4.1l-.09-.2c-.86-1.85-3.4-1.79-4.71-.61-5.05,4.57-8,10.74-9.02,17.42-.95,6.21-.91,12.62-.96,18.9-.06,7.54,3.8,14.98,8.75,20.48,4.17,4.63,9.59,8.35,15.2,11,11.58,5.46,24.61,6.92,37.29,6.39,6.53-.27,13.04-1.07,19.47-2.18s12.83-1.95,18.25-5.3,8.98-8.02,11.92-13.24c1.34-2.39,2.51-4.87,3.64-7.37.36-.81.81-1.63.97-2.5.18-.98.23-2,.36-2.99.22-1.66.47-3.31.69-4.97.91-6.93.66-14.16-2.05-20.69-1.42-3.42-3.32-6.54-5.78-9.32-1.05-1.19-2.33-2.71-3.73-3.48-.67-.37-1.43-.63-2.12-.94-.76-.34-1.52-.68-2.28-1.01-.84-.37-1.51-.5-2.43-.36-.47.07-.12.04-.67.08-.43.03.11-.01.11.05-.02.16-.33-.36.03.06.22.26.37.46.56.74.09.13-.09.42.02.12.07-.2,0-.51-.01-.72-.07-1.07-.25-2.13-.36-3.2-.21-2.1-.36-4.21-.48-6.32-.44-8.29-.17-16.6.21-24.89s.72-16.11.79-24.19c.06-6.88-.85-13.71-5.76-18.93-2.57-2.74-5.85-4.66-9.59-5.23-1.82-.27-3.62-.36-5.45-.21s-3.9.34-5.63,1.06c-3.26,1.38-5.55,3.87-6.75,7.19s-1.15,7.27-1.43,10.84c-1.37,17.11-2.81,34.3-1.83,51.48.24,4.21.63,8.41,1.19,12.59l3-3c-3.35-.14-6.71.05-10.06.1-4.44.08-8.87.18-13.3.47l2.89,2.2c-2.06-12.98-5.19-25.71-5.9-38.88-.33-6.16-.32-12.33-.59-18.49-.25-5.62-.83-11.02-3.12-16.21-.85-1.92-1.61-3.85-3.31-5.18-2.02-1.58-4.55-2.23-7.03-2.69-2.81-.52-5.59-1.2-8.45-.71s-5.6,2.02-7.44,4.2c-1.96,2.32-3.01,5.49-4.03,8.32s-1.84,6-2.4,9.08c-1.16,6.45-1.42,13-1.36,19.54.07,7.51.35,14.92,1.52,22.35s3.02,14.67,5.77,21.63c.59,1.51,2.01,2.56,3.69,2.1,1.43-.39,2.69-2.17,2.1-3.69Z"/>
            </g>
          </g>
          <g>
            <ellipse class="cls-17" cx="172.19" cy="327.55" rx="5.64" ry="6.52"/>
            <ellipse class="cls-17" cx="219.84" cy="327.55" rx="5.64" ry="6.52"/>
          </g>
          <polygon class="cls-17" points="205.75 352.25 199.13 346.83 192.74 352.79 198.93 346.66 192.51 341.04 199.13 346.46 205.52 340.5 199.33 346.64 205.75 352.25"/>
        </g>
      </g>
      <path class="cls-12" d="M84.79,207.25l-8.8-21.59c-.79-1.94-2.57-3.29-4.65-3.52l-33.05-3.73c-3.04-.34-3.4-4.62-.47-5.47l23.4-6.79c3.26-.95,4.98-4.5,3.7-7.64l-6.54-16.04c-1-2.45,1.65-4.79,3.96-3.5l29.42,16.54c1.34.75,2.92.93,4.39.51l32.67-9.48c2.57-.75,4.62,2.2,3.03,4.35l-10.35,13.96c-2.05,2.76-1.21,6.7,1.79,8.38l20.81,11.69c2.66,1.49,1.35,5.56-1.68,5.22l-33.34-3.76c-2.02-.23-4.02.64-5.23,2.28l-14.23,19.19c-1.3,1.75-4.02,1.41-4.84-.61Z"/>
      <path class="cls-13" d="M307.45,146.21l14.3,19.15c1.22,1.63,3.21,2.49,5.24,2.26l33.33-3.87c3.03-.35,4.36,3.71,1.7,5.21l-20.76,11.76c-2.99,1.7-3.82,5.64-1.76,8.39l10.4,13.92c1.6,2.15-.44,5.1-3.01,4.37l-32.71-9.37c-1.47-.42-3.06-.23-4.39.52l-29.36,16.63c-2.3,1.31-4.97-1.02-3.97-3.48l6.48-16.06c1.27-3.15-.47-6.7-3.73-7.63l-23.43-6.71c-2.94-.84-2.59-5.12.45-5.47l33.03-3.84c2.08-.24,3.86-1.6,4.64-3.54l8.71-21.62c.82-2.02,3.53-2.38,4.84-.63Z"/>
      <path class="cls-6" d="M93.58,462.49l5.41-22.6-25.45-20.86c-1.9-1.56-.27-4.6,2.08-3.88l27.3,8.34,4.94-20.62c.49-2.03,3.23-2.36,4.18-.5l14.47,28.33,31.46,9.61c2.09.64,2.13,3.58.06,4.28l-20.86,6.97,12.35,24.18c1.11,2.17-1.54,4.3-3.42,2.76l-25.94-21.25-23.68,7.91c-1.67.56-3.3-.94-2.89-2.65Z"/>
      <path class="cls-22" d="M250.68,436.99l15.45-24.68c.69-1.09.45-2.53-.55-3.35l-15.89-13.02c-1.89-1.54-1.03-4.59,1.38-4.94l29.98-4.24c.75-.11,1.41-.54,1.81-1.18l18.03-28.8c1.51-2.42,5.25-1.29,5.17,1.56l-.59,21.94c-.04,1.59,1.35,2.83,2.92,2.61l23.09-3.27c2.9-.41,4.4,3.35,2.01,5.05l-27.66,19.68c-.66.47-1.06,1.22-1.08,2.02l-.76,28.25c-.06,2.33-2.77,3.56-4.57,2.09l-16.64-13.64c-.89-.73-2.17-.78-3.11-.11l-25.01,17.79c-2.49,1.77-5.62-1.17-3.99-3.77Z"/>
      <path class="cls-10" d="M317.39,266.4l-2-22.14-22.03-4.4c-.23-.05-.26-.36-.05-.45l20.8-9.28-2.01-22.16c-.02-.23.26-.35.41-.18l14.87,16.42,20.8-9.28c.21-.09.42.14.3.34l-11.61,19.41,14.86,16.41c.15.17,0,.44-.22.39l-22.06-4.41-11.62,19.43c-.12.2-.42.13-.44-.1Z"/>
      <path class="cls-8" d="M60.35,288.52l5.29-10.83c.52-1.07.24-2.36-.68-3.11l-9.19-7.53c-2.11-1.73-.77-5.15,1.95-4.99l13.42.79c1.03.06,2-.5,2.46-1.43l5.84-11.95c1.18-2.41,4.74-1.96,5.29.67l2.42,11.76c.23,1.14,1.2,1.97,2.36,2.04l12.39.73c2.79.16,3.66,3.86,1.23,5.25l-11.21,6.43c-.96.55-1.46,1.66-1.24,2.74l2.51,12.16c.54,2.6-2.49,4.43-4.54,2.74l-9.96-8.16c-.82-.67-1.98-.77-2.9-.24l-11.52,6.6c-2.41,1.38-5.15-1.19-3.93-3.68Z"/>
      <path class="cls-3" d="M181.24,488.11l2.83-20.8-19.4-8.09c-.57-.24-.5-1.07.11-1.21l21.21-4.78,2.84-20.92c.08-.6.88-.76,1.18-.23l10.29,17.93,21.14-4.76c.61-.14,1.03.6.6,1.06l-14.81,15.78,10.29,17.92c.3.53-.24,1.14-.8.9l-19.52-8.14-14.86,15.84c-.42.45-1.18.09-1.09-.52Z"/>
      <path class="cls-16" d="M281.63,334.75l16.31-13.77-8.95-17.63c-.32-.63.34-1.32.99-1.01l19.26,9.11,16.54-13.96c.55-.46,1.38.04,1.21.74l-4.63,19.42,18.96,8.97c.67.32.52,1.32-.22,1.42l-21.93,2.98-4.68,19.65c-.16.68-1.08.79-1.39.17l-9.02-17.76-21.88,2.98c-.74.1-1.15-.83-.58-1.31Z"/>
      <path class="cls-1" d="M72.02,375.14l11.88-9.45-5.89-14.4c-1.05-2.57,1.86-4.95,4.17-3.4l13.07,8.77,11.99-9.53c2.09-1.67,5.11.26,4.49,2.86l-3.66,15.27,13.3,8.92c2.29,1.53,1.24,5.1-1.52,5.15l-15.22.27-3.52,14.71c-.64,2.66-4.31,2.94-5.34.41l-6.08-14.86-15.88.29c-2.69.05-3.91-3.34-1.8-5.02Z"/>
      <path class="cls-21" d="M75.41,107.91l-14.36-11.59-24.18,4.04c-3.23.54-4.62-3.95-1.65-5.33l15.38-7.14-9.55-7.7c-2.18-1.76-.74-5.27,2.05-4.99l28.67,2.87,26.08-12.1c2.5-1.16,5.01,1.6,3.61,3.98l-6.16,10.48,17.09,1.71c3.27.33,3.42,5.03.18,5.58l-23.9,4-9.08,15.44c-.87,1.48-2.86,1.84-4.19.76Z"/>
      <path class="cls-15" d="M306.8,72.31l16.27,9.14,23.31-7.89c3.1-1.05,5.19,3.14,2.49,4.99l-13.96,9.55,10.8,6.07c2.45,1.38,1.59,5.1-1.21,5.26l-28.65,1.7-23.58,16.12c-2.26,1.55-5.18-.72-4.23-3.29l4.2-11.43-17.28,1.03c-3.28.19-4.18-4.42-1.07-5.48l22.82-7.72,6.09-16.58c.6-1.63,2.51-2.33,4.02-1.48Z"/>
      <path class="cls-11" d="M121.62,73.32l13.33-2.79-.54-9.64c-.09-1.67,1.72-2.77,3.16-1.9l13.55,8.16,16.97-3.55c2.18-.46,3.46,2.37,1.68,3.71l-8.19,6.15,8.81,5.3c1.91,1.15.92,4.1-1.3,3.86l-17.2-1.88-12.58,9.44c-1.33,1-3.24.11-3.33-1.55l-.54-9.69-13.6-1.49c-2.36-.26-2.52-3.63-.2-4.11Z"/>
      <path class="cls-18" d="M159.82,96.38l27.65-5.62v-18.49c0-.26.31-.41.51-.23l17.5,15.07,27.98-5.69c.31-.06.5.33.26.54l-17.11,14.73,17.11,14.73c.24.21.05.6-.26.54l-27.98-5.69-17.5,15.07c-.2.17-.51.03-.51-.23v-18.49s-27.65-5.62-27.65-5.62c-.33-.07-.33-.54,0-.61Z"/>
      <path class="cls-10" d="M237.18,90.53l10.2-5.74-3.69-9.09c-.88-2.17,1.13-4.4,3.38-3.74l15.21,4.44,14.17-7.98c2.55-1.44,5.31,1.51,3.72,3.96l-5.05,7.76,9.03,2.64c2.85.83,2.61,4.96-.32,5.45l-15.67,2.62-8.34,12.83c-1.23,1.9-4.09,1.62-4.94-.47l-3.86-9.49-11.99,2.01c-3.09.52-4.57-3.66-1.83-5.2Z"/>
      <path class="cls-9" d="M168.51,107.79l-18.09,3.83.61,10.27c.03.57-.58.95-1.08.66l-13.45-7.98-19.35,4.09c-.75.16-1.19-.81-.58-1.27l10.9-8.18-11.8-7c-.66-.39-.32-1.4.44-1.32l19.69,2.07,12.42-9.32c.46-.34,1.11-.04,1.14.53l.61,10.28,18.44,1.94c.81.09.87,1.24.07,1.41Z"/>
      <path class="cls-24" d="M239.03,67.09l-15.35,2.72.44,7.35c.03.55-.53.94-1.03.71l-12.47-5.74-17.21,3.05c-.8.14-1.2-.93-.5-1.35l9.33-5.56-9.92-4.57c-.74-.34-.45-1.45.36-1.39l17.44,1.26,11.71-6.99c.47-.28,1.07.04,1.1.58l.44,7.36,15.59,1.12c.86.06.92,1.3.07,1.45Z"/>
      <path class="cls-11" d="M208.93,151.16l-16.68,6.59,2.96,10.5c.44,1.57-1.01,3.02-2.58,2.57l-19.42-5.55-21.21,8.38c-2.11.84-3.85-1.84-2.22-3.43l9.21-9.02-12.65-3.62c-2.2-.63-1.92-3.84.36-4.08l22.54-2.34,14.07-13.78c1.13-1.11,3.03-.6,3.46.92l3.02,10.72,18.15-1.88c2.41-.25,3.24,3.12.98,4.01Z"/>
      <path class="cls-18" d="M228.22,465.56l30.16-4.17v-13.95c0-.24.26-.39.46-.27l19.54,11.45,30.83-4.27c.33-.05.49.4.2.57l-18.66,10.94,18.66,10.94c.29.17.14.62-.2.57l-30.83-4.27-19.54,11.45c-.21.12-.46-.03-.46-.27v-13.95s-30.16-4.17-30.16-4.17c-.36-.05-.36-.56,0-.61Z"/>
      <path class="cls-10" d="M138.39,404.97l16.27,3.67,6.12-10.93c.13-.24.48-.2.56.06l4.16,13.31,16.43,3.71c.31.07.33.5.03.6l-13.75,4.35,4.06,13.01c.09.29-.25.52-.49.33l-12.75-10.44-14.1,4.46c-.27.08-.5-.2-.36-.45l6.09-10.87-12.53-10.27c-.25-.21-.05-.61.26-.54Z"/>
      <path class="cls-3" d="M215.64,155.38l12.8-4.02-1.07-11.87c-.23-2.49,2.66-4.01,4.59-2.43l11.64,9.54,15.02-4.71c2.71-.85,4.83,2.39,2.97,4.53l-7.58,8.7,8.97,7.35c2.21,1.81.63,5.38-2.2,4.96l-15.5-2.29-9.79,11.24c-1.63,1.87-4.7.87-4.93-1.59l-1.08-11.98-13.41-1.98c-2.96-.44-3.28-4.58-.43-5.47Z"/>
      <path class="cls-16" d="M53.23,241.42l-1.36-10.11-9.34-.55c-2.41-.14-3.54-3.06-1.84-4.78l9.2-9.36-1.77-13.18c-.39-2.87,3.29-4.38,5.03-2.08l5.11,6.74,5.95-6.05c2.04-2.07,5.49-.08,4.72,2.72l-3.52,12.76,7.88,10.39c1.45,1.92,0,4.65-2.41,4.51l-9.42-.56-2.73,9.91c-.81,2.95-5.09,2.66-5.5-.37Z"/>
      <path class="cls-24" d="M114.35,325.39l-17.67,3.98.64,10.78c.04.6-.62.98-1.13.66l-13.01-8.4-18.79,4.23c-.75.17-1.22-.79-.62-1.28l10.62-8.63-11.58-7.48c-.65-.42-.29-1.43.48-1.34l19.16,2.27,11.94-9.7c.46-.37,1.15-.07,1.19.52l.65,10.8,18.05,2.14c.82.1.88,1.26.07,1.44Z"/>
      <path class="cls-6" d="M92.1,220.08l12.17-2.65,4.09-12.86c.91-2.88,5.11-2.47,5.45.53l1.14,10,9.02-1.97c2.63-.57,4.48,2.54,2.71,4.57l-10.11,11.62,1.74,15.26c.3,2.61-2.84,4.15-4.73,2.33l-6.69-6.47-6.78,7.79c-1.99,2.29-5.7.21-4.78-2.69l3.96-12.46-8.54-8.26c-1.61-1.55-.83-4.27,1.35-4.75Z"/>
      <path class="cls-2" d="M349.27,123.76l6.39,10.44h13.37c3.1,0,3.9,4.29,1.01,5.41l-8.95,3.45,4.47,7.29c1.4,2.28-.9,5.04-3.39,4.07l-15.28-5.89-15.28,5.89c-2.5.96-4.79-1.79-3.39-4.07l4.47-7.29-8.95-3.45c-2.89-1.12-2.09-5.41,1.01-5.41h13.37s6.39-10.44,6.39-10.44c1.09-1.78,3.68-1.78,4.77,0Z"/>
      <path class="cls-19" d="M322.67,264.74l4.31,13.49,20.4,3.01c.3.04.33.47.04.55l-17.67,5.1,4.23,13.25c.08.25-.2.47-.42.32l-15.5-10.2-18.11,5.23c-.26.07-.47-.22-.31-.44l8.43-11.37-15.1-9.94c-.25-.17-.1-.56.2-.52l20.42,3.01,8.6-11.59c.14-.18.43-.14.5.08Z"/>
      <path class="cls-16" d="M206.88,426.68l9.98-8.5-5.61-11.04c-.32-.64.35-1.32.99-1.01l11.97,5.78,10.19-8.68c.55-.47,1.37.03,1.21.74l-2.77,12.11,11.71,5.66c.67.32.51,1.32-.23,1.41l-13.51,1.78-2.81,12.3c-.16.68-1.08.79-1.39.17l-5.67-11.17-13.48,1.77c-.74.1-1.15-.83-.58-1.31Z"/>
      <path class="cls-20" d="M109.32,465.39l3.27,8.49,14.22,2.1c.31.05.33.48.02.55l-12.12,2.87,3.15,8.19c.1.25-.18.48-.41.34l-11.12-6.54-12.73,3.02c-.26.06-.46-.25-.28-.46l5.71-6.86-10.57-6.22c-.27-.16-.12-.57.18-.52l14.24,2.1,5.94-7.14c.14-.17.4-.12.48.08Z"/>
      <path class="cls-5" d="M34.1,119.25l6.37,13.93,10.29-2.09c.6-.12,1.08.51.79,1.06l-6.21,11.68,6.68,14.61c.31.69-.5,1.34-1.1.89l-9.86-7.43-5.65,10.62c-.35.66-1.35.43-1.37-.32l-.49-15.96-10.87-8.19c-.5-.38-.32-1.17.29-1.3l10.22-2.08-.46-15.09c-.02-.8,1.06-1.05,1.39-.33Z"/>
    </g>
  </g>
</svg>