<?xml version="1.0" encoding="utf-8"?>
<!-- Generator: Adobe Illustrator 28.3.0, SVG Export Plug-In . SVG Version: 6.00 Build 0)  -->
<svg version="1.1" id="Layer_1" xmlns="http://www.w3.org/2000/svg" xmlns:xlink="http://www.w3.org/1999/xlink" x="0px" y="0px"
	 viewBox="0 0 595.28 841.89" style="enable-background:new 0 0 595.28 841.89;" xml:space="preserve">
<style type="text/css">
	.st0{fill:#FFFFFF;stroke:#000000;stroke-miterlimit:10;}
	.st1{fill:#FCB219;}
	.st2{fill:#00ACB9;}
</style>
<path class="st0" d="M209.93,289.79"/>
<g>
	<path class="st1" d="M146.5,323.27c-30.3-49.47-49.26-105.84-55.01-163.57c-1.9-19.06-0.18-42.36,16.72-51.37
		c14.73-7.86,33.12,0.05,45.78,10.94c14.35,12.34,25.29,28.61,31.32,46.55c8.99,26.74,6.99,55.83,11.95,83.6
		c3.54,19.8,10.59,38.77,17.61,57.62c10.13-6.79,21.82-11.25,33.9-12.93c-1.28-31.36-2.55-62.73-3.83-94.09
		c-0.85-20.86-0.28-45.02,16.03-58.04c7.62-6.08,17.51-8.54,27.2-9.61c10.42-1.16,21.47-0.77,30.62,4.32
		c12.45,6.93,19.04,21.35,21.07,35.46c3.33,23.12-3.36,46.38-10.24,68.7c-6.72,21.79-13.69,43.5-20.92,65.13
		c29.76,2.38,52.69,27.19,68.17,52.72c7.06,11.64,13.35,24.03,15.77,37.43c2.42,13.4,0.58,28.03-7.42,39.05
		c-6.59,9.07-16.63,14.91-26.59,20.05c-33.07,17.09-68.59,29.44-105.12,36.56c-24.1,4.7-51.23,6.49-71.08-7.97
		c-16.65-12.12-24.28-32.98-29.07-53.01c-8.85-37.02-11.06-75.62-6.49-113.41"/>
	<g>
		<path class="st2" d="M148.65,322c-16.92-27.67-30.31-57.43-39.78-88.45c-4.77-15.6-8.55-31.51-11.32-47.58
			c-2.42-14.09-4.82-28.72-4.05-43.06c0.62-11.37,3.66-24.47,13.81-31.14c12.23-8.04,27.49-2.92,38.65,4.52
			c12.38,8.26,22.43,20.54,29.58,33.49c7.77,14.08,11.59,29.65,13.53,45.52c2.06,16.83,2.5,33.83,5.09,50.61
			c2.62,16.99,7.92,33.39,13.77,49.51c1.49,4.1,3.01,8.2,4.54,12.29c0.53,1.42,2.22,2.46,3.67,1.49
			c10.05-6.67,21.37-10.97,33.3-12.68c1.03-0.15,1.88-1.42,1.84-2.41c-1.17-28.81-2.35-57.63-3.52-86.44
			c-0.46-11.19-1.11-22.47,0.3-33.62c1.23-9.73,4.24-19.79,11.14-27.05c8.22-8.66,20.43-11.5,31.93-12.42
			c11.82-0.94,24.25,0.62,33.09,9.25c7.7,7.52,11.66,18.22,13.2,28.69c2.02,13.73,0.25,27.78-2.82,41.21
			c-3.14,13.73-7.56,27.17-11.77,40.6c-4.29,13.66-8.67,27.29-13.16,40.88c-1.11,3.37-2.23,6.73-3.35,10.1
			c-0.55,1.66,0.89,3.04,2.41,3.16c16.15,1.37,30.48,9.88,42.02,20.86c12.19,11.61,21.91,25.86,29.74,40.7
			c8.32,15.77,13.93,34.17,8.55,51.84c-2.58,8.5-7.84,15.5-14.8,20.94c-7.21,5.64-15.61,9.73-23.79,13.75
			c-17.57,8.64-35.79,15.93-54.46,21.83c-17.97,5.68-36.53,10.49-55.23,13c-16.44,2.21-34.44,2.39-49.62-5.22
			c-15-7.52-24.18-21.85-29.8-37.2c-6.45-17.6-9.84-36.58-12.04-55.14c-2.41-20.36-2.87-40.96-1.37-61.41
			c0.37-5.02,0.86-10.03,1.46-15.03c0.16-1.35-1.27-2.49-2.5-2.5c-1.48-0.02-2.34,1.16-2.5,2.5c-2.54,21.22-2.99,42.67-1.31,63.97
			c1.6,20.32,4.83,40.85,10.64,60.42c4.81,16.21,12.34,32.51,26.02,43.08c14.15,10.94,32.46,13.59,49.89,12.59
			c19.11-1.1,38.17-5.71,56.53-10.91c19.59-5.56,38.74-12.64,57.24-21.13c9.01-4.13,18.1-8.43,26.55-13.63
			c7.69-4.73,14.82-10.61,19.48-18.46c9.66-16.26,7.81-36.56,1.08-53.5c-3.53-8.9-8.2-17.31-13.3-25.4
			c-4.65-7.36-9.81-14.44-15.57-20.98c-11-12.49-24.76-23.35-41.01-27.9c-3.89-1.09-7.89-1.76-11.91-2.1
			c0.8,1.05,1.61,2.11,2.41,3.16c4.74-14.18,9.37-28.39,13.89-42.64c4.46-14.07,9.1-28.15,12.81-42.44
			c3.61-13.93,6.18-28.4,5.23-42.84c-0.77-11.69-3.78-23.72-10.87-33.26c-3.34-4.5-7.47-8.4-12.41-11.09
			c-5.67-3.08-12.03-4.51-18.43-4.92c-6.51-0.42-13.11,0.18-19.52,1.31c-6.04,1.06-12.03,2.86-17.39,5.89
			c-20.37,11.5-22.65,36.88-22.17,57.87c0.33,14.46,1.13,28.92,1.72,43.37c0.61,15.04,1.23,30.09,1.84,45.13
			c0.15,3.7,0.3,7.39,0.45,11.09c0.61-0.8,1.22-1.61,1.84-2.41c-12.31,1.77-24.14,6.3-34.5,13.18c1.22,0.5,2.45,1,3.67,1.49
			c-6.25-16.79-12.53-33.66-16.34-51.21c-3.72-17.17-4.34-34.73-6.04-52.16c-1.65-16.94-4.53-33.75-11.77-49.29
			c-6.53-14.03-16.19-26.85-28.07-36.8c-10.99-9.21-26.05-16.75-40.74-13.5c-13.1,2.89-21.11,14.21-24.06,26.66
			c-3.23,13.61-1.72,27.74,0.08,41.44c2.2,16.74,5.44,33.33,9.78,49.64c8.61,32.39,21.4,63.7,37.98,92.83
			c2.02,3.54,4.1,7.06,6.22,10.54C146.01,327.27,150.34,324.76,148.65,322L148.65,322z"/>
	</g>
</g>
<g>
	<g>
		<path d="M210.15,361.86c-8.13,4.58-14.08,13-15.69,22.19c-1.63,9.35,1.23,18.79,8.31,25.24c6.7,6.11,16.37,9.27,25.27,6.73
			c5.03-1.43,9.6-4.74,11.05-9.97c1.45-5.26-0.45-10.79-2.75-15.5c-2.94-6.03-6.68-11.73-10.07-17.52c-1.66-2.84-3.25-5.74-5.03-8.5
			c-1.63-2.54-3.59-4.89-6.27-6.36c-2.82-1.55-5.35,2.77-2.52,4.32c1.88,1.03,3.21,2.63,4.37,4.4c1.43,2.19,2.69,4.5,4.02,6.76
			c2.82,4.81,5.63,9.61,8.45,14.42c2.3,3.92,4.8,8.21,5.25,12.83c0.42,4.32-1.64,7.65-5.54,9.48c-6.88,3.23-15.26,1.13-21.1-3.28
			c-6.17-4.66-9.43-11.91-8.87-19.6c0.64-8.77,6.02-17.02,13.65-21.32C215.48,364.6,212.96,360.28,210.15,361.86L210.15,361.86z"/>
	</g>
</g>
<g>
	<g>
		<path d="M293.64,358.06c-2.92,10.4-4.61,21.38-2.93,32.14c0.8,5.14,2.53,10.19,5.27,14.63c2.97,4.82,7.09,8.87,13.08,9
			c5.61,0.12,10.94-2.92,15.36-6.08c4.33-3.1,8.5-6.5,11.65-10.83c3.09-4.25,4.63-9.4,3.9-14.64c-0.75-5.4-3.72-10.14-7.2-14.22
			c-3.93-4.61-8.64-8.73-13.53-12.29c-5.09-3.71-10.93-6.49-17.32-6.63c-3.22-0.07-3.22,4.93,0,5c4.8,0.1,9.16,2.12,13.09,4.75
			c4.03,2.69,7.74,5.98,11.17,9.41c3.22,3.22,6.4,6.91,7.98,11.26c1.5,4.12,1.31,8.44-0.8,12.32c-2.13,3.92-5.54,7.02-9.02,9.74
			c-3.69,2.89-7.8,5.82-12.44,6.91c-1.95,0.46-4.05,0.47-5.91-0.35c-2.05-0.91-3.59-2.72-4.83-4.53c-2.61-3.83-4.31-8.12-5.24-12.65
			c-2.16-10.46-0.31-21.46,2.54-31.6C299.33,356.29,294.51,354.97,293.64,358.06L293.64,358.06z"/>
	</g>
</g>
<g>
	<g>
		<path d="M233.88,455.61c6.11,7.59,16.61,8.93,25.64,7.09c9.58-1.96,20.2-7.95,23.74-17.54c2.02-5.47,1.19-11.94-2.78-16.31
			c-1.63-1.79-5.05,0.08-4.18,2.43c3.76,10.14,12.48,17.8,22.79,20.86c10.7,3.17,23.64,0.87,31.21-7.81
			c4.61-5.28,6.73-12.66,4.72-19.48c-0.91-3.08-5.74-1.77-4.82,1.33c1.42,4.82,0.15,10.09-2.93,14.02
			c-3.12,3.98-7.81,6.48-12.66,7.65c-8.54,2.06-18.01-0.56-24.75-6.07c-3.85-3.14-6.99-7.16-8.73-11.84
			c-1.39,0.81-2.79,1.62-4.18,2.43c2.63,2.89,2.87,7.17,1.73,10.75c-1.3,4.1-4.64,7.33-8.15,9.63c-6.47,4.24-14.82,6.8-22.57,5.36
			c-4.19-0.78-7.84-2.7-10.54-6.05c-0.85-1.05-2.65-0.88-3.54,0C232.84,453.12,233.03,454.56,233.88,455.61L233.88,455.61z"/>
	</g>
</g>
<g>
	<path d="M213.43,364.57c-0.78,9.6-0.36,19.3,1.25,28.8c0.74,4.37,1.83,8.91,4.79,12.21c4.12,4.59,10.79,5.69,16.91,6.5
		c1.92,0.26,3.99,0.49,5.7-0.43c-4.57-7.39-11.53-12.93-17.34-19.4c-5.81-6.46-10.71-14.74-9.6-23.36
		c8.2,11.46,11.73,26.17,9.61,40.11c-0.81-6.03-1.61-12.06-2.42-18.09c-0.09-0.68-0.21-1.42-0.73-1.88
		c-1.59-1.41-3.44,1.46-3.64,3.57c-0.34,3.72-0.05,8.47,3.44,9.83c4.25,1.65,8.05-4.22,6.93-8.63c-1.12-4.41-4.8-7.63-7.25-11.47
		c3.26,7.9,6.7,15.72,10.33,23.46c0.71,1.52,1.71,3.24,3.38,3.41c1.68,0.16,3.09-1.51,3.25-3.18c0.17-1.68-0.56-3.3-1.32-4.81
		c-3.93-7.81-9.13-14.98-15.34-21.13c5.64,7.15,11.29,14.3,16.93,21.45c0.16-3.18-1.24-6.2-2.61-9.07
		c-6.11-12.81-12.23-25.61-18.34-38.42c0.07,4.59,6.27,5.62,10.66,6.95c7.14,2.18,12.3,8.74,14.62,15.84s2.21,14.74,1.79,22.2
		c-0.27,4.69-0.92,9.93-4.59,12.87c4.53-7.39,3.8-17.07,0.28-25s-9.48-14.47-15.33-20.86c9.2,5.22,13.46,15.99,17.05,25.95
		c2.77-4.15,0.56-9.91-2.81-13.58c-3.38-3.67-7.84-6.35-10.64-10.48"/>
	<g>
		<path d="M210.93,364.57c-0.81,10.28-0.33,20.72,1.59,30.86c0.82,4.3,2.21,8.6,5.19,11.92c2.8,3.12,6.82,4.88,10.83,5.88
			c2.24,0.56,4.52,0.9,6.81,1.21c2.79,0.38,5.39,0.63,8.01-0.63c1.19-0.57,1.57-2.35,0.9-3.42c-4.69-7.5-11.56-13.1-17.45-19.58
			c-5.42-5.97-10.14-13.53-9.15-21.91c-1.55,0.42-3.11,0.84-4.66,1.26c7.78,10.96,11.33,24.83,9.35,38.18
			c1.64,0.22,3.27,0.44,4.91,0.66c-0.44-3.26-0.87-6.52-1.31-9.78c-0.22-1.63-0.44-3.26-0.65-4.89c-0.21-1.57-0.29-3.23-0.66-4.77
			c-0.74-3.09-4.14-4.41-6.61-2.32c-1.95,1.65-2.53,4.21-2.63,6.64c-0.19,4.44,1.07,10.23,6.22,11.2c5.2,0.98,8.93-4.12,9.38-8.78
			c0.59-6.1-4.72-10.58-7.74-15.23c-0.67-1.04-1.96-1.54-3.12-1.02c-1.02,0.45-1.93,1.78-1.45,2.95c2.05,4.97,4.17,9.91,6.36,14.82
			c1.08,2.43,2.18,4.85,3.3,7.27c0.95,2.05,1.82,4.3,3.73,5.66c2.01,1.42,4.63,1.18,6.44-0.45c1.86-1.68,2.34-4.22,1.85-6.6
			c-0.47-2.27-1.79-4.44-2.9-6.45c-1.2-2.17-2.49-4.28-3.88-6.33c-3.06-4.52-6.55-8.75-10.42-12.6c-0.96-0.95-2.58-0.96-3.54,0
			c-1.05,1.05-0.84,2.47,0,3.54c5.64,7.15,11.29,14.3,16.93,21.45c1.42,1.8,4.21,0.2,4.27-1.77c0.12-4.37-1.98-8.28-3.81-12.11
			c-1.96-4.1-3.91-8.19-5.87-12.29c-3.87-8.12-7.75-16.23-11.62-24.35c-1.07-2.25-4.76-1.14-4.66,1.26c0.2,4.66,4.18,6.83,8.15,8.1
			c1.89,0.61,3.89,0.98,5.73,1.75c1.95,0.81,3.72,2.04,5.24,3.49c7.78,7.42,8.51,18.74,8.09,28.84c-0.19,4.68-0.07,10.62-3.99,13.9
			c1.31,1.01,2.62,2.02,3.93,3.03c3.65-6.08,4.19-13.39,2.72-20.22c-1.54-7.16-5.43-13.46-9.89-19.15c-2.6-3.31-5.44-6.42-8.27-9.52
			c-1.01,1.31-2.02,2.62-3.03,3.93c8.81,5.09,12.62,15.37,15.91,24.45c0.73,2.02,3.37,2.49,4.57,0.6
			c3.01-4.75,1.31-10.77-1.86-14.97c-3.32-4.39-8.45-7.08-11.59-11.61c-0.77-1.11-2.19-1.62-3.42-0.9c-1.1,0.64-1.67,2.31-0.9,3.42
			c2.94,4.24,7.25,6.99,10.75,10.69c2.58,2.73,4.97,7.26,2.7,10.84c1.52,0.2,3.05,0.4,4.57,0.6c-3.74-10.35-8.18-21.64-18.2-27.44
			c-2.51-1.45-4.93,1.85-3.03,3.93c5.74,6.27,11.78,12.76,15.1,20.72c2.92,7,3.58,15.41-0.44,22.11c-1.54,2.56,1.84,4.78,3.93,3.03
			c3.96-3.31,4.9-8.67,5.25-13.54c0.42-5.86,0.52-11.79-0.35-17.62c-1.49-10.02-7.11-20.17-17.13-23.69
			c-2.2-0.77-4.51-1.18-6.67-2.07c-0.61-0.25-1.76-0.89-2.1-1.22c-0.52-0.5-0.73-0.89-0.75-1.49c-1.55,0.42-3.11,0.84-4.66,1.26
			c3.73,7.82,7.47,15.64,11.2,23.45c1.85,3.87,3.7,7.74,5.55,11.62c1.66,3.47,3.98,7.18,3.87,11.15c1.42-0.59,2.85-1.18,4.27-1.77
			c-5.64-7.15-11.29-14.3-16.93-21.45c-1.18,1.18-2.36,2.36-3.54,3.54c5.64,5.63,10.41,12.03,14.14,19.08
			c0.7,1.32,1.96,3.14,1.81,4.73c-0.03,0.32-0.17,0.84-0.49,1.02c0,0,0.07,0.08,0.05,0.09c-0.13,0.04-0.45-0.32-0.53-0.4
			c-1.14-1.29-1.75-3.35-2.46-4.89c-0.94-2.05-1.88-4.11-2.79-6.17c-2.01-4.51-3.96-9.06-5.85-13.62c-1.52,0.64-3.05,1.28-4.57,1.93
			c2.05,3.17,5.02,5.9,6.52,9.41c1.03,2.41,0.54,5.53-1.65,6.93c-0.7,0.45-1.47,0.44-2.21-0.3c-0.72-0.72-1.06-2.1-1.16-3.28
			c-0.12-1.38-0.23-3.13,0.24-4.33c0.12-0.3,0.38-0.59,0.48-0.89c0.09-0.26,0.39-0.07-0.17-0.04c-0.28,0.01-0.58,0.1-0.86-0.07
			c-0.73-0.45-0.34-0.64-0.31-0.13c0.03,0.49,0.16,1,0.22,1.49c0.74,5.54,1.48,11.08,2.22,16.62c0.17,1.23,0.82,2.3,2.17,2.46
			c1.11,0.13,2.56-0.55,2.74-1.79c2.17-14.66-1.25-29.9-9.86-42.03c-1.5-2.11-4.37-1.22-4.66,1.26c-1.07,9.08,3.79,17.56,9.51,24.2
			c5.79,6.73,13.02,12.23,17.78,19.83c0.3-1.14,0.6-2.28,0.9-3.42c-1.49,0.72-3.53,0.22-5.1-0.01c-1.78-0.25-3.55-0.54-5.3-0.95
			c-3.28-0.77-6.56-1.96-8.92-4.45c-2.59-2.73-3.53-6.6-4.2-10.19c-0.82-4.43-1.32-8.93-1.57-13.42c-0.3-5.3-0.22-10.61,0.2-15.91
			c0.11-1.35-1.23-2.5-2.5-2.5C211.99,362.07,211.03,363.22,210.93,364.57L210.93,364.57z"/>
	</g>
</g>
<g>
	<path d="M314.45,361.62c7.63,13.92,13.55,28.78,17.56,44.14c4.08-4.49,7.2-10.32,6.71-16.36c-0.62-7.64-6.7-13.61-12.75-18.32
		c-7.07-5.51-14.65-10.35-22.62-14.45c5.27,14.79,10.54,29.58,15.8,44.37c1.34,3.76,2.75,7.64,5.45,10.58
		c4.55-6.41,9.33-13.74,8.03-21.48c-0.7-4.13-3.07-7.77-5.55-11.15c-4.55-6.22-9.64-12.06-15.17-17.42
		c-1.14-1.11-2.92-2.24-4.17-1.26c-0.83,0.65-0.86,1.87-0.8,2.92c1.07,16.79,9.44,32.12,17.62,46.81c0.98,1.76,3.26,3.73,4.62,2.25
		c-2.53-16.71-8.56-32.88-17.57-47.17c-0.21,7.37,1.95,14.79,6.07,20.9c0.9,1.34,2.59,2.75,3.92,1.84
		c-0.7-7.97-2.66-15.83-5.78-23.21c0.23,14.92,3.55,29.78,9.7,43.38c3.91-5.79,6.53-12.44,7.61-19.34"/>
	<g>
		<path d="M312.29,362.88c7.52,13.76,13.32,28.38,17.31,43.54c0.46,1.75,2.91,2.51,4.18,1.1c3.13-3.49,5.8-7.59,6.91-12.19
			c1.11-4.58,0.49-9.19-1.58-13.4c-1.93-3.93-5.05-7.27-8.32-10.13c-3.66-3.2-7.64-6.07-11.67-8.78c-4.66-3.14-9.51-5.99-14.51-8.57
			c-1.79-0.92-4.45,0.64-3.67,2.82c3.49,9.81,6.99,19.62,10.48,29.43c1.72,4.83,3.44,9.65,5.16,14.48
			c1.55,4.34,3.14,8.66,6.25,12.15c1.16,1.3,3.05,0.72,3.93-0.51c3.48-4.91,7.08-10.22,8.2-16.25c0.57-3.08,0.51-6.24-0.42-9.25
			c-0.92-2.98-2.51-5.7-4.28-8.24c-3.71-5.32-7.9-10.35-12.35-15.06c-2.07-2.19-4.32-5.15-7.2-6.26c-3.45-1.33-6.2,1.28-6.28,4.7
			c-0.07,3.07,0.56,6.3,1.15,9.3c0.6,3.04,1.4,6.04,2.37,8.98c1.98,6.01,4.58,11.82,7.44,17.46c1.42,2.81,2.91,5.59,4.43,8.35
			c1.35,2.46,2.54,5.46,4.76,7.27c1.05,0.86,2.27,1.48,3.66,1.43c2.01-0.06,3.67-1.63,3.37-3.68c-0.44-3.08-1.05-6.14-1.75-9.17
			c-3.15-13.63-8.63-26.75-16.07-38.6c-1.32-2.1-4.6-1.25-4.66,1.26c-0.12,5.4,0.9,10.79,3,15.77c1.6,3.81,5.29,12.16,10.75,9.13
			c0.71-0.4,1.31-1.32,1.24-2.16c-0.75-8.22-2.67-16.26-5.86-23.87c-0.48-1.15-1.41-1.99-2.74-1.79c-1.2,0.18-2.19,1.19-2.17,2.46
			c0.27,15.41,3.72,30.59,10.04,44.64c0.83,1.84,3.38,1.4,4.32,0c4.01-5.99,6.71-12.82,7.86-19.94c0.21-1.33-0.34-2.69-1.75-3.08
			c-1.19-0.33-2.86,0.41-3.08,1.75c-1.09,6.74-3.56,13.07-7.36,18.74c1.44,0,2.88,0,4.32,0c-5.94-13.22-9.1-27.63-9.36-42.12
			c-1.64,0.22-3.27,0.44-4.91,0.66c3.01,7.18,4.98,14.78,5.69,22.54c0.41-0.72,0.83-1.44,1.24-2.16c0.59-0.33,0.44,0.25,0.11-0.27
			c-0.15-0.23-0.4-0.39-0.56-0.61c-0.54-0.7-0.98-1.51-1.41-2.28c-1.01-1.76-1.85-3.6-2.51-5.52c-1.32-3.85-1.93-7.84-1.85-11.91
			c-1.55,0.42-3.11,0.84-4.66,1.26c8.9,14.17,14.78,30.03,17.32,46.57c0.21-0.81,0.43-1.62,0.64-2.43c0.02-0.02,0.67-0.24,0.67-0.23
			c0.01-0.04-0.16-0.06-0.25-0.17c-0.51-0.61-0.93-1.03-1.33-1.73c-0.95-1.69-1.89-3.4-2.82-5.1c-1.83-3.36-3.62-6.74-5.29-10.19
			c-3.34-6.88-6.18-14.04-7.78-21.54c-0.37-1.73-0.68-3.47-0.89-5.23c-0.11-0.96-0.2-1.92-0.27-2.88c-0.02-0.32,0.06-0.83-0.03-1.12
			c-0.11-0.36,0.11-0.25-0.42,0.07c-0.24,0.15-0.39-0.22-0.16,0.04c0,0,0.41,0.2,0.42,0.21c0.28,0.15,0.49,0.34,0.72,0.55
			c0.73,0.66,1.42,1.38,2.11,2.08c1.41,1.42,2.79,2.88,4.14,4.36c2.65,2.92,5.19,5.96,7.57,9.11c2.17,2.88,4.5,5.9,5.69,9.33
			c2.84,8.15-2.56,15.9-7.07,22.26c1.31-0.17,2.62-0.34,3.93-0.51c-2.83-3.17-4.07-7.43-5.47-11.35c-1.66-4.67-3.33-9.34-4.99-14.01
			c-3.38-9.5-6.77-18.99-10.15-28.49c-1.22,0.94-2.45,1.88-3.67,2.82c8.05,4.15,15.8,9.01,22.89,14.66
			c5.74,4.58,12.1,10.79,11.22,18.81c-0.49,4.43-3.03,8.48-5.95,11.73c1.39,0.37,2.79,0.74,4.18,1.1
			c-4.09-15.57-10.09-30.62-17.81-44.74C315.07,357.54,310.75,360.06,312.29,362.88L312.29,362.88z"/>
	</g>
</g>
<g>
	<g>
		<path d="M148.54,411.28c-17.57,3.77-35.2,7.22-52.89,10.35c-5.03,0.89-10.07,1.75-15.11,2.58c-1.33,0.22-2.08,1.87-1.75,3.08
			c0.39,1.41,1.74,1.97,3.08,1.75c17.72-2.94,35.4-6.2,53-9.79c5.01-1.02,10.01-2.07,15-3.14
			C153.02,415.43,151.69,410.6,148.54,411.28L148.54,411.28z"/>
	</g>
</g>
<g>
	<g>
		<path d="M147.65,443.61c-15.45,15.32-30.91,30.64-46.36,45.95c-4.36,4.33-8.73,8.65-13.09,12.98c-2.29,2.27,1.25,5.8,3.54,3.54
			c15.45-15.32,30.91-30.64,46.36-45.95c4.36-4.33,8.73-8.65,13.09-12.98C153.47,444.87,149.94,441.34,147.65,443.61L147.65,443.61z
			"/>
	</g>
</g>
<g>
	<g>
		<path d="M374.31,350.81c14.04-12.05,28.34-23.79,42.9-35.2c14.51-11.38,29.28-22.44,44.29-33.17
			c8.49-6.07,17.05-12.03,25.69-17.89c2.65-1.8,0.15-6.13-2.52-4.32c-15.44,10.47-30.65,21.29-45.61,32.43
			c-14.94,11.13-29.64,22.59-44.08,34.37c-8.15,6.65-16.21,13.39-24.19,20.24c-1.03,0.88-0.9,2.63,0,3.54
			C371.79,351.83,373.28,351.69,374.31,350.81L374.31,350.81z"/>
	</g>
</g>
<g>
	<g>
		<path d="M383.14,381.25c21.94-5.32,43.96-10.31,66.06-14.97c6.29-1.33,12.58-2.62,18.88-3.9c1.32-0.27,2.09-1.84,1.75-3.08
			c-0.38-1.38-1.75-2.01-3.08-1.75c-22.13,4.47-44.2,9.27-66.18,14.4c-6.26,1.46-12.51,2.95-18.76,4.46
			C378.69,377.19,380.01,382.01,383.14,381.25L383.14,381.25z"/>
	</g>
</g>
<g>
	<g>
		<path d="M266.47,459.3c4.57,3.52,9.14,7.05,13.71,10.57c2.29,1.77,4.56,3.57,6.89,5.3c1.96,1.46,4.13,2.76,6.58,3.14
			c5.05,0.79,10.07-2.04,13.88-5.1c3.37-2.7,6.14-6.24,8.01-10.13c2.19-4.56,3.31-9.61,2.95-14.68c-0.1-1.35-1.08-2.5-2.5-2.5
			c-1.28,0-2.6,1.15-2.5,2.5c0.53,7.56-2.55,14.98-8.12,20.09c-2.65,2.43-6.83,5.36-10.61,4.96c-2.08-0.22-3.9-1.63-5.51-2.85
			c-2.07-1.56-4.1-3.16-6.16-4.74c-4.7-3.62-9.4-7.25-14.1-10.87c-1.07-0.82-2.8-0.16-3.42,0.9
			C264.82,457.17,265.4,458.48,266.47,459.3L266.47,459.3z"/>
	</g>
</g>
<g>
	<g>
		<path d="M286.89,446.76c1.97,5.73,3.95,11.45,5.92,17.18c0.44,1.28,1.71,2.12,3.08,1.75c1.24-0.34,2.19-1.79,1.75-3.08
			c-1.97-5.73-3.95-11.45-5.92-17.18c-0.44-1.28-1.71-2.12-3.08-1.75C287.4,444.02,286.45,445.48,286.89,446.76L286.89,446.76z"/>
	</g>
</g>
</svg>
